<?xml version="1.0" standalone="no"?>
<!DOCTYPE svg PUBLIC "-//W3C//DTD SVG 20010904//EN"
 "http://www.w3.org/TR/2001/REC-SVG-20010904/DTD/svg10.dtd">
<svg version="1.0" xmlns="http://www.w3.org/2000/svg"
 width="16.000000pt" height="16.000000pt" viewBox="0 0 16.000000 16.000000"
 preserveAspectRatio="xMidYMid meet">
<metadata>
Created by potrace 1.11, written by Peter Selinger 2001-2013
</metadata>
<g transform="translate(0.000000,16.000000) scale(0.002356,-0.002356)"
fill="#000000" stroke="none">
<path d="M943 5358 c2 -508 1 -933 -4 -945 -15 -40 -44 -47 -209 -47 -172 0
-208 10 -231 65 -6 15 -12 95 -14 177 -3 163 -7 186 -37 219 -21 23 -59 26
-265 25 -63 0 -112 -22 -144 -65 -31 -42 -37 -135 -32 -527 2 -162 3 -333 2
-380 0 -47 -1 -162 -2 -255 -1 -243 -6 -238 248 -240 95 -1 158 -5 172 -13 30
-16 37 -56 37 -212 1 -226 8 -231 280 -234 l181 -2 1 -45 c19 -490 21 -773 10
-1115 -7 -184 -6 -216 8 -242 23 -44 63 -52 265 -55 141 -2 173 -5 186 -18 13
-13 17 -45 21 -155 8 -260 15 -287 77 -297 57 -9 331 0 382 13 74 19 116 19
150 2 19 -10 72 -18 151 -23 187 -10 199 -24 198 -228 -1 -100 -5 -147 -17
-180 -10 -24 -17 -46 -17 -50 0 -3 558 -6 1240 -6 l1240 0 0 160 c-1 180 7
227 45 264 25 26 27 26 163 23 339 -8 659 -8 684 1 56 18 79 92 83 273 2 67 8
131 14 143 23 43 63 53 184 45 178 -10 213 -9 242 10 49 32 58 75 50 226 -8
145 -7 238 2 310 3 25 6 340 7 700 1 360 6 668 10 683 12 40 45 51 74 24 19
-17 39 -21 132 -25 157 -7 207 10 255 83 19 28 20 44 16 295 -6 400 -5 1476 1
1721 4 119 3 233 -2 254 -18 80 -67 103 -232 110 -57 2 -124 8 -151 14 -109
25 -170 7 -195 -56 -21 -53 -38 -188 -35 -280 3 -82 1 -95 -17 -113 -17 -17
-54 -25 -110 -22 -39 2 -248 15 -258 16 -34 5 -34 72 -1 102 25 23 24 49 -4
71 -27 21 -24 45 9 78 24 24 28 38 24 85 -6 70 -48 98 -148 99 -30 0 -70 5
-90 10 -20 5 -68 12 -107 16 -82 8 -122 26 -136 63 -6 15 -11 105 -12 200 l-1
172 -741 0 -741 0 1 -189 c0 -104 -3 -203 -7 -220 -16 -59 -38 -64 -264 -67
l-204 -3 0 240 0 239 -720 0 -720 0 -1 -167 c-1 -307 0 -304 -139 -309 -174
-7 -321 -7 -327 0 -4 4 -8 109 -9 234 -1 125 -3 230 -3 235 -1 4 -114 7 -252
7 l-251 0 5 -922z"/>
</g>
</svg>
